<?xml version="1.0" encoding="UTF-8"?>
<!DOCTYPE svg PUBLIC "-//W3C//DTD SVG 1.1//EN" "http://www.w3.org/Graphics/SVG/1.1/DTD/svg11.dtd">
<!-- Creator: CorelDRAW 2018 (64-Bit) -->
<svg xmlns="http://www.w3.org/2000/svg" xml:space="preserve" width="224mm" height="52mm" version="1.1" style="shape-rendering:geometricPrecision; text-rendering:geometricPrecision; image-rendering:optimizeQuality; fill-rule:evenodd; clip-rule:evenodd"
viewBox="0 0 22400 5200"
 xmlns:xlink="http://www.w3.org/1999/xlink">
 <defs>
  <style type="text/css">
   <![CDATA[
    .fil2 {fill:none}
    .fil1 {fill:#2B2A29}
    .fil0 {fill:#87BD3B}
    .fil3 {fill:#2B2A29;fill-rule:nonzero}
    .fil4 {fill:#87BD3B;fill-rule:nonzero}
   ]]>
  </style>
 </defs>
 <g id="Katman_x0020_1">
  <metadata id="CorelCorpID_0Corel-Layer"/>
  <g id="_1590502659520">
   <g>
    <polygon class="fil0" points="2413.05,4404.29 3776.07,4360.83 5576.36,2896.28 6653.65,4089.23 5576.24,3118.27 3857.23,4501.78 3857.23,4948.47 7371.95,5071.91 3604.68,5133.02 3604.68,4531.33 3097.27,4531.33 3097.27,5097.78 2754.38,5097.78 2754.38,4531.33 2412.63,4531.33 "/>
    <path class="fil1" d="M2667.71 3890.37l-0.18 -1238.04c1.83,-5.8 61.37,-22.96 70.57,-26.04l251.15 -83.44c18.49,-6.32 18.12,-10.46 36.57,-2.52l604.85 258.4c24.99,10.76 117.77,51.8 135.55,57.54l0.03 101c-3.01,7.15 -10.46,11.05 -15.39,15.46l-120.61 102.46c-11.39,10.23 -23.48,19.29 -34.4,29.05l-102.83 87.56c-11.73,9.91 -22.22,18.79 -34.4,29.05l-171.83 145.57c-31.25,27.27 -73.94,60.99 -103.02,87.36l-309.09 262.17c-22.94,20.57 -45.65,37.81 -68.59,58.33l-138.38 116.09zm4174.37 94.88c-1.78,-6.78 -5.03,-7.23 -9.3,-12.5l-20.03 -23.53c-23.43,-24.37 -77.96,-95.33 -100.94,-118.73l-30.96 -36.18c-6.39,-8.31 -13.74,-15.15 -20.1,-23.46 -22.32,-29.08 -59.39,-66.52 -81.14,-94.96l-30.09 -35.29c-4.39,-4.68 -5.45,-7.15 -9.89,-11.86 -35.64,-37.93 -66.67,-81.27 -101.86,-119.6 -4.34,-4.73 -5.97,-7.32 -9.97,-11.83l-91.1 -106.77c-6.96,-8.39 -13.59,-14.43 -20.33,-23.21 -18.99,-24.76 -40.64,-47.63 -60.82,-71.72 -6.91,-8.27 -14.99,-16.26 -21.08,-24.3l-41.02 -47.92c-4.19,-4.56 -5.4,-7.1 -9.89,-11.86l-81.15 -94.96c-24.24,-25.77 -67.97,-83.29 -91.08,-106.79 -21.01,-21.43 -70.61,-86.1 -90.98,-106.84 -24.62,-25.04 -46.94,-56.7 -71.28,-83.07l-19.8 -23.78c-28.81,-29.96 -52.71,-64.66 -81.15,-94.9 -4.49,-4.76 -5.72,-7.3 -9.91,-11.86l-91.09 -106.8c-10.18,-11.59 -95.79,-114.64 -103.16,-120.09 -39.17,9.25 -128.08,37.32 -167.89,49.08 -28.49,8.42 -55.05,16.18 -83.88,24.59 -52.71,15.35 -410.92,122.56 -422.54,123.52 0,-35.15 1.8,-63.85 1.8,-98.58 0,-34.09 0,-68.17 0,-102.26 -36.03,0 -67.43,1.9 -104.57,1.83l-104.08 2.32c-22.87,3.18 -53.35,0.93 -78.11,1.25 -10.39,0.13 -13.59,2 -25.11,1.95 -36.9,-0.17 -69.5,1.78 -104.6,1.78 0,103.29 -1.8,201.18 -1.8,304.92 -15.61,1.33 -272.46,76.92 -284.69,80.55l-212.33 60.7c-12.33,3.62 -23.63,6.7 -35.1,10.08 -9.44,2.81 -27.47,9.13 -37.61,9.35l0 -173.48c0.05,-11.13 -1.35,-14.95 -1.8,-23.7 -3.11,-57.77 1.78,-117.33 0.03,-175.37 -0.28,-9.49 -1.83,-12.45 -1.83,-23.67 6.17,0.52 15.74,5.82 22.12,8.6 47.7,20.82 93.63,44.28 141.4,64.97 4.79,2.07 7.25,2.74 11.35,4.96 2.71,-5.75 3.82,-12.43 6.09,-19.44 10.63,-33.07 36.08,-107.46 42.57,-135.77 -24.47,-13.12 -245.38,-162.56 -264.67,-175.66l-199.4 -132.19c-98.88,-67.06 -199.19,-131.46 -298.19,-198.3 -11.64,-7.87 -21.73,-14.65 -33.54,-22.67l-32.83 -21.53c-11.69,-7.91 -21.63,-15.16 -33.71,-22.42l-132.89 -88.22c-10.78,-7.3 -21.58,-14.65 -32.41,-21.92l-34.26 -21.9c-11.05,5.92 -22.12,14.32 -32.83,21.55l-759.04 511.26c-44.47,30.01 -87.31,58.94 -132,89.11 -22.69,15.34 -43.24,29.54 -66.3,44.19 -22.12,13.99 -43.43,31.87 -66.37,44.17 1.14,14.01 14.63,64.92 18.01,78.51 4.44,17.68 17.71,64.2 18.03,80.35 8.33,-1.97 18.91,-7.69 27.08,-10.95 9.1,-3.65 17.33,-7.3 26.78,-11.19 17.71,-7.35 36.9,-15.94 54.56,-23.26 36.99,-15.34 72.46,-30.76 109.5,-46.15 36.11,-14.97 72.27,-30.73 109.17,-46.47l244.17 -103.29c64.42,-26.21 127.68,-55.12 192.2,-81.09l244.15 -103.39c12.67,-5.4 16.49,-0.79 28.58,4.51 18.67,8.17 36.31,14.73 55.39,22.45l386.58 158.07c54.68,22.12 111.51,44.14 165.64,67.8 18.65,8.18 36.26,14.72 55.35,22.44 9.89,4.02 17.16,6.96 27.05,10.95l28.1 11.74c0,79.44 -1.8,153.36 -1.8,231.91 -17.39,-4.12 -535.52,-215.48 -544.53,-219.11l-168.95 -68.1c-11.93,-4.83 -23.2,-9.98 -34.7,-14.23 -11.02,-4.07 -25.45,3.78 -35.88,7.72 -11.22,4.27 -23.11,9.08 -35.64,13.22l-209.27 76.54c-6.26,2.49 -10.9,3.72 -17.46,6.04 -17.86,6.33 -34.31,14.47 -53.4,18.96 0,-25.15 3.33,-23.72 -15.69,-15.9l-465.67 194.86 0 542.28c-22.2,0 -225.99,-1.11 -245.58,-3.45 -14,-1.68 -17.85,4.51 -25.4,10.24 -40.38,30.78 -81.73,60.74 -120.83,93.08l-101.44 78.03c-7.45,5.65 -13.66,10.38 -20.59,15.66 -13.42,10.17 -26.22,20.38 -39.93,30.78l-80.88 62.33c-6.97,5.3 -13.14,10.01 -20.59,15.66l-60.28 46.69c-12.77,10.31 -27.35,23.06 -41.73,30.78 0,-9.97 1.09,-12.68 1.7,-20.18l3.7 -63.8c-68.22,0 -132.52,-1.83 -201.94,-1.83 -29.15,0 -75.35,2.82 -102.51,-0.27 -18.54,-2.12 -80.55,-3.99 -101.41,-1.75 -13.62,1.46 -5.58,26.81 -5.13,42.13 1.53,51.59 -0.07,103.63 -0.07,155.25 0,69.38 0,138.79 0,208.17l-249.11 185.96c-41.38,30.81 -82.08,63.51 -124.11,93.38 -10.78,7.69 -20.29,14.99 -31.17,23.23l-62.33 46.42c-7.67,5.87 -26.43,18.59 -30.9,25.3l448.95 0c23.93,0 135.18,4.27 147.22,-2.44l21.18 -15.07c8.37,-5.6 14.09,-10.19 22.35,-15.71l244.15 -170.89c7.96,-5.41 13.93,-10.07 22.29,-15.72l44.74 -31.42c74.59,-50.16 145.99,-104.38 220.69,-154.44l65.98 -46.4c59.86,-40.27 117.15,-83.43 177.06,-123.78l200.49 -140.21c10.56,-7.28 34.55,-27.78 45.43,-30.71l0 1426.05 221.73 0 0 -867.32c12.95,0 20.19,-1.63 34.35,-1.75 8.71,-0.07 9.4,-1.24 16.25,-1.8 5.73,-0.47 12.16,0.12 17.99,-0.05 8.63,-0.25 8.21,-1.46 16.18,-1.87 5.77,-0.32 12.13,0.39 17.93,-0.1 30.31,-2.52 75.69,-2.87 103.36,-6.71l103.98 -6.05c46.27,-0.39 93.18,-5.84 138.98,-7.17 8.63,-0.25 8.24,-1.48 16.16,-1.9 28.61,-1.53 58.01,-0.2 87.28,-4.69 22.89,-3.5 46,-1.65 68.02,-4.17 5.92,-0.66 11.89,-0.02 17.86,-0.19 8.63,-0.25 8.21,-1.48 16.13,-1.9 5.82,-0.32 12.21,0.34 18.05,0.02 36.09,-1.95 86.2,-7.4 120.83,-7.27l225.38 -12.78c8.63,-0.22 8.21,-1.45 16.18,-1.87 5.84,-0.32 12.18,0.32 18.05,0 16.48,-0.89 36.31,-3.83 52.24,-3.68 27.43,0.25 86.96,-4.51 119.12,-7.18 28.64,-2.39 58.28,0.2 87.61,-4.41 17.56,-2.74 30.93,-19.56 44.15,-30.14l221.08 -181.43c42.79,-35.36 101.81,-80.92 141.47,-116.04 39,-34.55 81.84,-67.85 122.41,-100.57l281.83 -231.35c88.34,-70.29 174.4,-143.57 261.85,-214.99l81.74 -66.99c47.77,-37.69 93.62,-78.28 141.4,-116.07 54.68,-43.21 107.03,-88.74 161.22,-132.49 60.77,-49.01 120.09,-100.28 181.33,-148.7l101.54 -83.43c6.73,-6.09 12.87,-10.58 19.88,-16.38l40.87 -33.49c4.16,-3.31 6.38,-5.18 10.01,-8.07 4.22,-3.33 6.59,-6.29 10.83,-9.15 12.72,8.63 45.7,49.08 60.87,64.37l80.23 86.74c4.04,4.07 6.76,6.81 10.8,10.91 4.86,4.88 5.75,7.07 9.94,11.88 15.24,17.56 35.66,35.23 50.39,53.05 4.24,5.16 5.03,6.89 9.94,11.82l40.64 42.84c4.42,4.54 5.11,6.51 8.98,10.98l91.95 98.63c27.79,28.06 52.45,58.69 80.23,86.71 3.72,3.78 6.26,6.24 9.96,10.02 4.61,4.76 5.6,7.25 9.84,11.93 7.15,7.82 14.75,13.96 21.63,21.88 3.9,4.49 4.62,6.46 9.03,11 3.97,4.07 6.78,6.83 10.83,10.9l242.49 262.03c27.87,28.16 53.3,59.49 81.14,87.65 27.77,28.07 52.49,58.7 80.26,86.72l91.03 97.67c4.91,4.93 5.75,6.63 9.99,11.81l29.65 32.06c3.92,4.15 6.85,6.86 10.85,10.93l60.42 64.79c4.82,4.86 5.7,7.08 9.89,11.89l20.7 21.01c4.19,4.81 5.08,7.03 9.94,11.89l71.25 75.72c4.54,4.73 5.33,7.2 9.84,11.94 6.81,7.12 14.77,13.76 20.6,21.13 6.63,8.41 34.06,39.24 41.21,44.1z"/>
    <polygon class="fil1" points="6849.28,3992.55 6849.28,3994.38 6851.37,3992.87 "/>
    <line class="fil2" x1="6843.88" y1="3987.08" x2="6842.08" y2= "3985.25" />
    <line class="fil2" x1="6845.68" y1="3988.9" x2="6843.88" y2= "3987.08" />
    <line class="fil2" x1="6847.48" y1="3990.73" x2="6845.68" y2= "3988.9" />
    <line class="fil2" x1="6849.28" y1="3992.55" x2="6847.48" y2= "3990.73" />
    <g>
     <polygon class="fil0" points="5234.53,3501.62 5414.08,3501.62 5414.08,3682.63 5234.53,3682.63 "/>
     <polygon class="fil0" points="5540.16,3501.62 5719.74,3501.62 5719.74,3682.63 5540.16,3682.63 "/>
     <polygon class="fil0" points="1628.73,4237.95 1774.86,4237.95 1774.86,4385.27 1628.73,4385.27 "/>
     <polygon class="fil0" points="1877.46,4237.95 2023.61,4237.95 2023.61,4385.27 1877.46,4385.27 "/>
     <polygon class="fil0" points="2778.47,2723.66 2935.23,2723.66 2935.23,2881.68 2778.47,2881.68 "/>
     <polygon class="fil0" points="3045.31,2723.66 3202.07,2723.66 3202.07,2881.68 3045.31,2881.68 "/>
     <polygon class="fil0" points="5234.53,3782.86 5414.08,3782.86 5414.08,3963.87 5234.53,3963.87 "/>
     <polygon class="fil0" points="5540.16,3782.86 5719.74,3782.86 5719.74,3963.87 5540.16,3963.87 "/>
     <polygon class="fil0" points="1628.73,4466.83 1774.86,4466.83 1774.86,4614.13 1628.73,4614.13 "/>
     <polygon class="fil0" points="1877.46,4466.83 2023.61,4466.83 2023.61,4614.13 1877.46,4614.13 "/>
     <polygon class="fil0" points="2778.47,2969.18 2935.23,2969.18 2935.23,3127.2 2778.47,3127.2 "/>
     <polygon class="fil0" points="3045.31,2969.18 3202.07,2969.18 3202.07,3127.2 3045.31,3127.2 "/>
     <polygon class="fil0" points="512.03,4513.59 678.83,4513.59 1128.3,4513.59 2152.36,3707.29 1158.41,4664.05 678.83,4664.05 512.03,5070.75 512.03,4664.05 "/>
     <path class="fil1" d="M187.41 3785.21c-276.39,-4124.26 4835.58,-4764.18 6026.46,-1543.58 -937.19,-3433.45 -6537.05,-2749.18 -6026.46,1543.58z"/>
     <path class="fil0" d="M187.41 3899.62c-276.39,-4124.26 4835.58,-4764.18 6026.46,-1543.58 -937.19,-3433.45 -6537.05,-2749.18 -6026.46,1543.58z"/>
     <path class="fil3" d="M5313.13 4744.25c0,14.63 -4.14,25.87 -12.43,33.96 -8.31,7.99 -20.1,12.02 -35.27,12.02 -15.39,0 -27.2,-3.73 -35.44,-11.11 -8.29,-7.44 -12.43,-18.49 -12.43,-33.17l0 -220.96c0,-14.45 4.24,-25.7 12.6,-33.79 8.39,-8.09 20.17,-12.16 35.27,-12.16 15.44,0 27.25,3.73 35.47,11.25 8.19,7.45 12.23,18.47 12.23,33.02l0 220.94zm57.86 -2.93c0,-12.24 4.29,-22.72 12.95,-31.5 8.66,-8.78 19.19,-13.19 31.47,-13.19 12.13,0 22.62,4.41 31.35,13.19 8.75,8.78 13.09,19.26 13.09,31.5 0,12.35 -4.34,22.96 -13.09,31.81 -8.73,8.86 -19.22,13.3 -31.35,13.3 -12.06,0 -22.47,-4.49 -31.27,-13.42 -8.81,-8.93 -13.15,-19.46 -13.15,-31.69zm326.25 -72.54l-89.48 0 0 75.47c0,14.55 -4.12,25.87 -12.43,33.89 -8.34,8.06 -20.1,12.09 -35.24,12.09 -15.42,0 -27.26,-3.73 -35.47,-11.11 -8.24,-7.44 -12.41,-18.49 -12.41,-33.17l0 -220.96c0,-14.45 4.22,-25.7 12.58,-33.79 8.39,-8.09 20.18,-12.16 35.3,-12.16 15.41,0 27.27,3.73 35.44,11.25 8.16,7.45 12.23,18.47 12.23,33.02l0 62.82 89.48 0 0 -62.82c0,-14.25 4.12,-25.23 12.31,-32.82 8.14,-7.65 20,-11.45 35.39,-11.45 15.27,0 27.18,4.07 35.64,12.16 8.48,8.09 12.68,19.34 12.68,33.79l0 220.96c0,14.41 -4.17,25.36 -12.38,32.95 -8.24,7.53 -20.11,11.33 -35.52,11.33 -15,0 -26.73,-4.03 -35.3,-12.09 -8.55,-8.02 -12.82,-19.34 -12.82,-33.89l0 -75.47zm148.38 72.54c0,-12.24 4.31,-22.72 12.97,-31.5 8.63,-8.78 19.19,-13.19 31.45,-13.19 12.16,0 22.64,4.41 31.34,13.19 8.76,8.78 13.12,19.26 13.12,31.5 0,12.35 -4.36,22.96 -13.12,31.81 -8.7,8.86 -19.18,13.3 -31.34,13.3 -12.06,0 -22.47,-4.49 -31.28,-13.42 -8.78,-8.93 -13.14,-19.46 -13.14,-31.69zm198.64 -258.06l139.2 0c13.66,0 24.12,3.16 31.22,9.42 7.23,6.32 10.78,15.59 10.78,27.75 0,11.39 -3.5,20.1 -10.53,26.22 -7.08,6.11 -17.14,9.12 -30.24,9.12l-102.25 0 0 40.5 81.56 0c13.49,0 23.38,2.74 29.6,8.21 6.21,5.48 9.35,14.13 9.35,25.92 0,11.67 -3.14,20.52 -9.45,26.52 -6.29,5.97 -15.42,8.92 -27.5,8.92l-83.56 0 0 46.79 106.89 0c13.52,0 23.92,3.23 31.2,9.69 7.23,6.49 10.8,15.89 10.8,28.27 0,11.52 -3.48,20.37 -10.53,26.56 -6.98,6.19 -17.09,9.28 -30.19,9.28l-146.35 0c-21.46,0 -36.5,-4.15 -45.01,-12.36 -8.54,-8.24 -12.83,-22.79 -12.83,-43.65l0 -191c0,-20.96 4.29,-35.57 12.83,-43.8 8.51,-8.22 23.55,-12.36 45.01,-12.36z"/>
    </g>
   </g>
   <g>
    <path class="fil4" d="M11189.64 5071.08c-30.1,0 -56.47,-11.48 -79.14,-34.4 -22.54,-22.93 -33.88,-50.54 -33.88,-82.85l0 -672.69c0,-32.31 11.34,-59.92 33.88,-82.85 22.67,-22.93 49.04,-34.4 79.14,-34.4l322.69 0c32.7,0 59.73,10.43 81.09,31.27 21.24,20.78 31.93,47.75 31.93,80.91 0,34.78 -10.43,61.94 -31.4,81.48 -20.91,19.54 -48.08,29.31 -81.62,29.31l-199.65 0 0 114.71 180.83 0c33.48,0 60.77,9.97 81.68,29.9 20.91,20 31.33,47.35 31.33,82.2 0,34.85 -10.29,62.21 -30.75,82.21 -20.51,19.93 -47.87,29.9 -82.26,29.9l-179.46 0 0 122.33 203.3 0c35.17,0 63.05,9.77 83.5,29.31 20.52,19.54 30.75,46.7 30.75,81.55 0,33.94 -10.36,61.16 -31.4,81.56 -20.91,20.38 -48.14,30.55 -81.55,30.55l-329.01 0zm1200.16 7.61c-36.08,0 -64.88,-10.81 -86.63,-32.44 -21.89,-21.68 -32.63,-51.19 -32.63,-88.59l0 -679.06c0,-38.23 9.57,-68.2 28.78,-89.82 19.29,-21.69 46.91,-32.5 82.99,-32.5 25.86,0 47.68,5.08 65.21,15.31 17.65,10.15 36.01,28 55.23,53.47l347.84 410.24 2.61 0 0 -358c0,-37.39 11.01,-66.9 33.15,-88.52 22.15,-21.69 50.87,-32.5 86.11,-32.5 35.96,0 64.68,10.81 85.98,32.5 21.3,21.62 31.99,51.13 31.99,88.52l0 679.13c0,38.17 -10.42,68.14 -31.33,89.82 -21.04,21.63 -48.59,32.44 -82.99,32.44 -25.92,0 -48.07,-5.92 -66.51,-17.78 -18.37,-11.92 -39.33,-32.76 -62.72,-62.46l-336.51 -396.24 -2.53 0 0 355.45c0,37.4 -10.89,66.91 -32.71,88.59 -21.75,21.63 -50.16,32.44 -85.33,32.44zm1491.4 -7.61c-30.16,0 -56.54,-11.48 -79.08,-34.4 -22.67,-22.93 -33.93,-50.54 -33.93,-82.85l0 -672.69c0,-32.31 11.26,-59.92 33.93,-82.85 22.54,-22.93 48.92,-34.4 79.08,-34.4l322.7 0c32.69,0 59.6,10.43 80.96,31.27 21.3,20.78 32.05,47.75 32.05,80.91 0,34.78 -10.49,61.94 -31.4,81.48 -20.91,19.54 -48.07,29.31 -81.61,29.31l-199.65 0 0 114.71 180.82 0c33.48,0 60.64,9.97 81.55,29.9 20.98,20 31.46,47.35 31.46,82.2 0,34.85 -10.22,62.21 -30.74,82.21 -20.52,19.93 -48.01,29.9 -82.27,29.9l-179.59 0 0 122.33 203.37 0c35.24,0 63.11,9.77 83.64,29.31 20.45,19.54 30.74,46.7 30.74,81.55 0,33.94 -10.56,61.16 -31.4,81.56 -20.97,20.38 -48.13,30.55 -81.62,30.55l-329.01 0zm1200.04 7.61c-35.96,0 -64.88,-10.81 -86.63,-32.44 -21.7,-21.68 -32.64,-51.19 -32.64,-88.59l0 -676.52c0,-32.31 11.34,-59.92 33.94,-82.85 22.6,-22.93 49.04,-34.4 79.07,-34.4l262.45 0c91.25,0 165.18,26.58 221.66,79.67 56.47,53.09 84.75,124.22 84.75,213.39 0,54.39 -14.27,104.03 -42.6,149.11 -28.61,45 -71.66,77.25 -129.37,96.79l-7.62 2.54 141.87 156.72c33.61,37.39 50.28,71.78 50.28,103.25 0,29.7 -11.07,56.01 -33.21,78.94 -22.28,22.93 -53.42,34.39 -93.61,34.39 -43.51,0 -83.31,-24.62 -119.33,-73.86l-208.44 -285.44 -2.41 0 0 238.27c0,37.4 -11.01,66.91 -32.7,88.59 -21.76,21.63 -50.29,32.44 -85.46,32.44zm118.16 -533.8l130.47 0c22.67,0 41.04,-7.68 55.24,-22.93 14.32,-15.3 21.43,-35.31 21.43,-59.92 0,-23.78 -7.76,-42.22 -23.19,-55.44 -15.57,-13.16 -33.36,-19.74 -53.48,-19.74l-130.47 0 0 158.03zm1541.49 550.42c-75.24,0 -143.31,-13.42 -204.02,-40.13 -60.7,-26.77 -109.43,-62.67 -146.23,-107.67 -36.94,-45.01 -64.94,-94.97 -84.16,-149.76 -19.28,-54.78 -28.85,-111.9 -28.85,-171.31 0,-142.72 43.05,-259.5 129.29,-350.37 86.18,-90.93 195.16,-136.34 326.48,-136.34 113.08,0 203.42,23.32 271.29,70.02 57.72,38.24 86.7,87.09 86.7,146.56 0,28.86 -9.44,52.44 -28.33,70.68 -18.89,18.3 -44.1,27.42 -75.95,27.42 -22.61,0 -50.62,-10.61 -84.1,-31.85 -1.82,-0.85 -9.31,-5.73 -22.66,-14.66 -13.42,-8.92 -24.89,-16.15 -34.52,-21.62 -9.65,-5.54 -24.11,-10.88 -43.26,-15.96 -19.28,-5.09 -39.34,-7.62 -60.38,-7.62 -59.34,0 -109.23,23.78 -149.43,71.33 -40.19,47.55 -60.25,108.71 -60.25,183.49 0,74.71 18.43,135.87 55.24,183.42 36.93,47.62 86.24,71.39 148.25,71.39 42.67,0 79.86,-11.46 111.72,-34.38 31.78,-23 50.67,-52.7 56.53,-89.24l-106.76 0c-36.02,0 -64.09,-9.77 -84.16,-29.32 -20.12,-19.47 -30.09,-46.7 -30.09,-81.48 0,-35.7 9.97,-63.51 30.09,-83.52 20.07,-19.92 47.69,-29.89 82.86,-29.89l239.84 0c76.27,0 114.38,48.01 114.38,143.95 0,119.79 -39.93,220.82 -119.33,303.22 -79.54,82.4 -176.27,123.64 -290.19,123.64zm1379.81 -16.62c-36.09,0 -64.94,-10.81 -86.7,-32.44 -21.82,-21.68 -32.63,-51.19 -32.63,-88.59l0 -310.83 -153.2 -186.03c-43.58,-58.63 -72.44,-100.05 -86.64,-124.23 -14.27,-24.22 -21.36,-48.2 -21.36,-71.97 0,-30.61 11.53,-56.28 34.45,-77.12 23.13,-20.78 52.57,-31.2 88.52,-31.2 19.36,0 37.92,5.53 55.96,16.54 18.04,11.08 31.14,21.69 39.54,31.86 8.4,10.22 18.82,23.77 31.39,40.77l130.67 179.65 128.06 -178.34c19.22,-27.24 37.46,-47.82 54.52,-61.82 17.27,-14.01 30.49,-22.28 39.67,-24.82 9.12,-2.61 20.52,-3.84 33.87,-3.84 35.12,0 64.49,10.42 87.87,31.2 23.39,20.84 35.12,46.51 35.12,77.12 0,22.08 -6.65,44.75 -20.06,68.14 -13.42,23.38 -40.19,62.66 -80.39,117.83l-160.69 196.26 0 310.83c0,37.4 -11.08,66.91 -33.29,88.59 -22.21,21.63 -50.35,32.44 -84.68,32.44z"/>
    <path class="fil3" d="M7251.66 3471.41l0 -232.93 100.38 0c63.64,0 104.35,-8.85 122.33,-26.05 17.84,-17.2 26.9,-59.54 26.9,-127.93l0 -1002.35c0,-69.3 -9.06,-112.1 -26.9,-128.84 -17.98,-16.74 -58.69,-25.14 -122.33,-25.14l-100.38 0 0 -232.93 968.86 0 0 232.93 -100.31 0c-64.36,0 -106.04,8.85 -124.41,26.44 -18.31,17.66 -27.29,60.06 -27.29,127.54l0 1002.35c0,67.48 8.98,109.88 27.29,127.48 18.37,17.65 60.05,26.5 124.41,26.5l100.31 0 0 232.93 -968.86 0zm1578.62 23.39l-198.15 0 0 -698.41 219.78 0c19.86,142.52 76.21,255.93 168.38,341.07 92.56,85.13 205.89,127.47 340.41,127.47 92.56,0 165.12,-18.96 217.75,-56.87 52.64,-37.97 78.76,-90.01 78.76,-155.35 0,-102.79 -97.91,-178.68 -293.97,-228.05 -31.85,-7.49 -56.28,-13.68 -73.09,-18.11 -170.73,-43.64 -289.08,-79.86 -355.07,-108.52 -65.72,-28.27 -119.91,-60.9 -162.64,-97.96 -55.11,-46.77 -96.74,-102.34 -124.87,-166.76 -28.07,-64.42 -42.41,-136.33 -42.41,-214.43 0,-179.06 58.3,-318.53 174.89,-417.34 116.6,-99.27 281.47,-148.64 493.82,-148.64 106.04,0 199.78,12.31 281.33,36.6 81.55,24.69 152.1,61.76 212.02,111.58l48.92 -124.8 203.1 0 0 648.97 -224.66 0c-14.33,-131.06 -64.49,-234.3 -150.47,-308.82 -86.12,-74.59 -197.76,-112.1 -334.74,-112.1 -81.95,0 -146.89,18.56 -194.57,55.63 -47.68,37.06 -71.72,87.35 -71.72,150.4 0,90.48 108.07,160.18 323.81,209.55 81.93,19.02 146.68,34.91 194.88,48.14 187.54,49.82 325.37,121.28 412.2,214.36 87.29,93.15 130.86,214.44 130.86,364.45 0,176.46 -61.17,316.77 -183.42,421.32 -121.94,104.15 -287.46,156.2 -496.23,156.2 -100.37,0 -197.76,-14.6 -292.34,-43.26 -95.1,-28.66 -173.72,-67.48 -236.51,-115.62l-66.05 129.3zm2207.26 -910.17c0,241.79 31.01,418.71 93.41,529.44 61.95,111.19 160.63,166.75 296.38,166.75 134.57,0 232.8,-55.56 294.81,-166.75 62.34,-110.73 93.41,-287.65 93.41,-529.44 0,-241.73 -31.07,-418.64 -93.41,-529.38 -62.01,-111.19 -160.24,-166.81 -294.81,-166.81 -135.75,0 -234.43,55.62 -296.38,166.81 -62.4,110.74 -93.41,287.65 -93.41,529.38zm-533.34 0c0,-292.93 81.93,-523.26 245.43,-690.86 163.89,-167.66 389.46,-251.5 676.98,-251.5 285.76,0 510.35,83.39 674.25,250.6 163.56,167.21 245.43,397.92 245.43,691.76 0,292.99 -81.49,522.8 -244.98,689.55 -163.11,166.81 -388.16,250.2 -674.7,250.2 -287.52,0 -513.09,-83.39 -676.98,-250.6 -163.5,-167.21 -245.43,-397.07 -245.43,-689.15zm3004.02 886.78l0 -232.93 90.55 0c63.56,0 104.41,-8.85 122.26,-26.05 18.04,-17.2 26.9,-59.54 26.9,-127.48l0 -1002.8c0,-69.3 -8.86,-112.1 -26.9,-128.84 -17.85,-16.74 -58.7,-25.14 -122.26,-25.14l-90.55 0 0 -232.93 897.86 0 0 232.93 -46.5 0c-65.27,0 -106.76,8.85 -124.81,26.44 -17.85,17.66 -26.84,60.06 -26.84,127.54l0 346.35 530.88 0 0 -346.35c0,-67.48 -8.99,-109.88 -27.43,-127.54 -18.3,-17.59 -59.86,-26.44 -124.28,-26.44l-46.57 0 0 -232.93 897.99 0 0 232.93 -90.61 0c-64.42,0 -105.98,8.85 -124.41,26.44 -18.24,17.66 -27.23,60.06 -27.23,127.54l0 1002.8c0,67.03 8.99,109.43 27.23,127.03 18.43,17.65 59.99,26.5 124.41,26.5l90.61 0 0 232.93 -897.99 0 0 -232.93 46.57 0c64.42,0 105.98,-8.85 124.28,-26.5 18.44,-17.6 27.43,-60 27.43,-127.03l0 -415.58 -530.88 0 0 415.58c0,67.03 8.99,109.43 26.84,127.03 18.05,17.65 59.54,26.5 124.81,26.5l46.5 0 0 232.93 -897.86 0zm2848.55 -886.78c0,241.79 31.07,418.71 93.4,529.44 62.08,111.19 160.7,166.75 296.51,166.75 134.45,0 232.81,-55.56 294.75,-166.75 62.34,-110.73 93.34,-287.65 93.34,-529.44 0,-241.73 -31,-418.64 -93.34,-529.38 -61.94,-111.19 -160.3,-166.81 -294.75,-166.81 -135.81,0 -234.43,55.62 -296.51,166.81 -62.33,110.74 -93.4,287.65 -93.4,529.38zm-533.29 0c0,-292.93 81.95,-523.26 245.44,-690.86 163.89,-167.66 389.53,-251.5 676.98,-251.5 285.69,0 510.36,83.39 674.24,250.6 163.63,167.21 245.44,397.92 245.44,691.76 0,292.99 -81.42,522.8 -244.91,689.55 -163.11,166.81 -388.22,250.2 -674.77,250.2 -287.45,0 -513.09,-83.39 -676.98,-250.6 -163.49,-167.21 -245.44,-397.07 -245.44,-689.15zm2730.52 499.87c0,67.48 8.92,109.88 26.9,127.48 17.85,17.65 59.47,26.5 124.74,26.5l46.37 0 0 232.93 -702.11 0 0 -232.93 80.37 0c65.73,0 107.23,-8.85 125.27,-26.5 17.85,-17.6 26.83,-60 26.83,-127.48l0 -1002.35c0,-67.48 -8.98,-109.88 -26.83,-127.54 -18.04,-17.59 -59.54,-26.44 -125.27,-26.44l-80.37 0 0 -232.93 861.19 0 285.88 1093.66 300.88 -1093.66 854.15 0 0 232.93 -83.5 0c-64.49,0 -105.59,8.85 -124.03,26.44 -18.3,17.66 -27.29,60.06 -27.29,127.54l0 1002.35c0,67.48 8.99,109.88 27.29,127.48 18.44,17.65 59.54,26.5 124.03,26.5l83.5 0 0 232.93 -861.13 0 0 -232.93 48.92 0c63.65,0 104.42,-8.85 122.4,-26.05 17.91,-17.2 26.84,-59.54 26.84,-127.93l0 -1108.65 -408.48 1495.56 -329.86 0 -396.69 -1498.23 0 1111.32zm2148.51 386.91l0 -232.93 90.47 0c63.65,0 104.49,-8.85 122.34,-26.05 18.04,-17.2 26.97,-59.54 26.97,-127.93l0 -1002.35c0,-69.3 -8.93,-112.1 -26.97,-128.84 -17.85,-16.74 -58.69,-25.14 -122.34,-25.14l-90.47 0 0 -232.93 1621.93 0 0 677.63 -215.21 0c-13.55,-103.25 -29.45,-181.74 -47.69,-234.69 -18.37,-52.97 -42.4,-94.39 -73.08,-124.88 -30.09,-30.87 -68.85,-52.95 -117.05,-65.72 -47.62,-12.77 -132.82,-19.41 -256.45,-19.41l-212.74 0 0 505.6 40.71 0c90.93,0 151.64,-18.57 182.25,-55.57 30.62,-37.06 46.13,-112.09 46.13,-225.05l205.51 0 0 810.06 -205.51 -1.36c-2.41,-122.66 -17.47,-202.91 -45.28,-239.59 -28.07,-36.99 -88.97,-55.56 -183.1,-55.56l-40.71 0 0 571.78 220.17 0c179.77,0 301.32,-33.54 364.45,-100.57 63.31,-67.09 104.02,-200.3 122.39,-398.84l215.21 0 0 732.34 -1621.93 0z"/>
   </g>
  </g>
 </g>
</svg>
