<?xml version="1.0" encoding="UTF-8"?>
<!DOCTYPE svg PUBLIC "-//W3C//DTD SVG 1.1//EN" "http://www.w3.org/Graphics/SVG/1.1/DTD/svg11.dtd">
<!-- Creator: CorelDRAW 2018 (64-Bit) -->
<svg xmlns="http://www.w3.org/2000/svg" xml:space="preserve" width="225mm" height="210mm" version="1.1" style="shape-rendering:geometricPrecision; text-rendering:geometricPrecision; image-rendering:optimizeQuality; fill-rule:evenodd; clip-rule:evenodd"
viewBox="0 0 22500 21000"
 xmlns:xlink="http://www.w3.org/1999/xlink">
 <defs>
  <style type="text/css">
   <![CDATA[
    .fil2 {fill:none}
    .fil1 {fill:#2B2A29}
    .fil0 {fill:#87BD3B}
    .fil3 {fill:#2B2A29;fill-rule:nonzero}
    .fil4 {fill:#87BD3B;fill-rule:nonzero}
   ]]>
  </style>
 </defs>
 <g id="Katman_x0020_1">
  <metadata id="CorelCorpID_0Corel-Layer"/>
  <g id="_1920084195136">
   <polygon class="fil0" points="7158.13,13668.57 11369.55,13534.3 16932.09,9009.14 20260.68,12695.12 16931.71,9695.06 11620.34,13969.81 11620.34,15349.97 22480.08,15731.38 10840,15920.22 10840,14061.11 9272.22,14061.11 9272.22,15811.32 8212.74,15811.32 8212.74,14061.11 7156.83,14061.11 "/>
   <polygon class="fil0" points="15875.89,10879.53 16430.66,10879.53 16430.66,11438.8 15875.89,11438.8 "/>
   <polygon class="fil0" points="16820.22,10879.53 17375.08,10879.53 17375.08,11438.8 16820.22,11438.8 "/>
   <polygon class="fil0" points="4734.72,13154.64 5186.23,13154.64 5186.23,13609.82 4734.72,13609.82 "/>
   <polygon class="fil0" points="5503.25,13154.64 5954.84,13154.64 5954.84,13609.82 5503.25,13609.82 "/>
   <polygon class="fil0" points="8287.19,8475.78 8771.55,8475.78 8771.55,8964.02 8287.19,8964.02 "/>
   <polygon class="fil0" points="9111.66,8475.78 9596.02,8475.78 9596.02,8964.02 9111.66,8964.02 "/>
   <polygon class="fil0" points="15875.89,11748.5 16430.66,11748.5 16430.66,12307.77 15875.89,12307.77 "/>
   <polygon class="fil0" points="16820.22,11748.5 17375.08,11748.5 17375.08,12307.77 16820.22,12307.77 "/>
   <polygon class="fil0" points="4734.72,13861.83 5186.23,13861.83 5186.23,14316.93 4734.72,14316.93 "/>
   <polygon class="fil0" points="5503.25,13861.83 5954.84,13861.83 5954.84,14316.93 5503.25,14316.93 "/>
   <polygon class="fil0" points="8287.19,9234.4 8771.55,9234.4 8771.55,9722.65 8287.19,9722.65 "/>
   <polygon class="fil0" points="9111.66,9234.4 9596.02,9234.4 9596.02,9722.65 9111.66,9722.65 "/>
   <polygon class="fil0" points="1284.36,14006.31 1799.74,14006.31 3188.51,14006.31 6352.64,11515 3281.55,14471.17 1799.74,14471.17 1284.36,15727.8 1284.36,14471.17 "/>
   <path class="fil1" d="M7944.95 12080.68l-0.53 -3825.29c5.64,-17.91 189.6,-70.95 218.02,-80.47l776 -257.81c57.15,-19.51 56.01,-32.31 113.01,-7.77l1868.87 798.4c77.19,33.23 363.88,160.04 418.82,177.79l0.08 312.06c-9.3,22.1 -32.31,34.14 -47.55,47.78l-372.65 316.56c-35.2,31.63 -72.55,59.6 -106.3,89.77l-317.71 270.53c-36.27,30.64 -68.66,58.07 -106.3,89.77l-530.93 449.77c-96.55,84.28 -228.46,188.45 -318.31,269.92l-955 810.06c-70.88,63.56 -141.06,116.82 -211.93,180.23l-427.59 358.7zm12897.94 293.16c-5.49,-20.96 -15.55,-22.33 -28.73,-38.64l-61.88 -72.7c-72.4,-75.29 -240.89,-294.53 -311.91,-366.85l-95.64 -111.79c-19.74,-25.68 -42.45,-46.79 -62.11,-72.47 -68.96,-89.85 -183.5,-205.53 -250.71,-293.4l-92.97 -109.05c-13.57,-14.47 -16.85,-22.1 -30.56,-36.65 -110.12,-117.2 -205.99,-251.1 -314.73,-369.52 -13.41,-14.63 -18.44,-22.63 -30.79,-36.58l-281.5 -329.89c-21.49,-25.91 -41.99,-44.58 -62.8,-71.71 -58.67,-76.51 -125.58,-147.16 -187.92,-221.61 -21.34,-25.53 -46.33,-50.22 -65.15,-75.06l-126.73 -148.07c-12.96,-14.1 -16.69,-21.95 -30.56,-36.65l-250.72 -293.39c-74.91,-79.64 -210.02,-257.35 -281.43,-329.97 -64.92,-66.23 -218.17,-266.04 -281.12,-330.13 -76.05,-77.35 -145.02,-175.19 -220.23,-256.66l-61.19 -73.46c-89.01,-92.59 -162.86,-199.81 -250.72,-293.24 -13.87,-14.71 -17.68,-22.55 -30.63,-36.65l-281.43 -329.97c-31.47,-35.82 -295.98,-354.21 -318.77,-371.05 -121.01,28.58 -395.73,115.3 -518.73,151.65 -88.02,25.99 -170.09,49.99 -259.18,75.98 -162.85,47.4 -1269.66,378.66 -1305.55,381.64 0,-108.6 5.56,-197.3 5.56,-304.6 0,-105.31 0,-210.63 0,-315.95 -111.33,0 -208.34,5.87 -323.11,5.64l-321.58 7.17c-70.65,9.83 -164.84,2.89 -241.35,3.88 -32.08,0.38 -41.99,6.18 -77.57,6.02 -114.01,-0.53 -214.75,5.49 -323.19,5.49 0,319.15 -5.56,621.61 -5.56,942.13 -48.24,4.11 -841.85,237.68 -879.65,248.89l-656.05 187.54c-38.1,11.2 -73,20.73 -108.44,31.17 -29.19,8.68 -84.89,28.19 -116.21,28.88l0 -536.03c0.15,-34.37 -4.19,-46.18 -5.57,-73.23 -9.6,-178.48 5.49,-362.51 0.08,-541.83 -0.84,-29.34 -5.64,-38.48 -5.64,-73.15 19.05,1.6 48.62,17.98 68.36,26.59 147.38,64.32 289.27,136.79 436.88,200.73 14.79,6.4 22.41,8.46 35.06,15.31 8.38,-17.75 11.81,-38.4 18.82,-60.05 32.85,-102.19 111.49,-332.02 131.53,-419.51 -75.59,-40.54 -758.17,-502.27 -817.76,-542.73l-616.12 -408.46c-305.51,-207.21 -615.44,-406.18 -921.33,-612.7 -35.96,-24.31 -67.13,-45.26 -103.63,-70.03l-101.43 -66.53c-36.13,-24.46 -66.84,-46.86 -104.18,-69.27l-410.59 -272.58c-33.3,-22.56 -66.68,-45.27 -100.14,-67.75l-105.85 -67.67c-34.14,18.29 -68.35,44.27 -101.43,66.6l-2345.3 1579.67c-137.4,92.74 -269.76,182.13 -407.85,275.33 -70.11,47.4 -133.59,91.29 -204.84,136.56 -68.36,43.21 -134.2,98.45 -205.07,136.48 3.51,43.29 45.19,200.57 55.63,242.56 13.72,54.64 54.72,198.37 55.71,248.28 25.76,-6.1 58.45,-23.78 83.67,-33.83 28.12,-11.28 53.57,-22.56 82.76,-34.6 54.72,-22.71 114,-49.23 168.57,-71.86 114.31,-47.4 223.89,-95.03 338.35,-142.58 111.57,-46.26 223.28,-94.96 337.29,-143.58l754.43 -319.14c199.05,-81.01 394.52,-170.32 593.87,-250.57l754.36 -319.45c39.17,-16.69 50.98,-2.44 88.32,13.94 57.69,25.23 112.18,45.5 171.16,69.35l1194.44 488.4c168.95,68.36 344.53,136.41 511.8,209.49 57.61,25.3 112.02,45.5 171,69.35 30.56,12.42 53.04,21.49 83.6,33.83l86.8 36.28c0,245.46 -5.56,473.84 -5.56,716.56 -53.73,-12.73 -1654.65,-665.81 -1682.47,-677.01l-522.01 -210.41c-36.88,-14.93 -71.71,-30.86 -107.22,-43.97 -34.06,-12.57 -78.64,11.66 -110.88,23.86 -34.67,13.18 -71.4,28.04 -110.11,40.84l-646.61 236.47c-19.35,7.7 -33.68,11.51 -53.95,18.67 -55.17,19.58 -106,44.73 -164.99,58.6 0,-77.73 10.29,-73.31 -48.46,-49.15l-1438.84 602.1 0 1675.53c-68.58,0 -698.27,-3.43 -758.78,-10.67 -43.28,-5.18 -55.17,13.95 -78.49,31.63 -124.75,95.1 -252.54,187.69 -373.33,287.6l-313.43 241.11c-23.02,17.45 -42.22,32.08 -63.63,48.39 -41.46,31.4 -81.01,62.95 -123.38,95.1l-249.88 192.58c-21.56,16.38 -40.62,30.94 -63.63,48.39l-186.25 144.25c-39.47,31.86 -84.51,71.26 -128.94,95.11 0,-30.79 3.36,-39.17 5.26,-62.34l11.43 -197.14c-210.78,0 -409.45,-5.64 -623.97,-5.64 -90.07,0 -232.81,8.69 -316.71,-0.84 -57.3,-6.55 -248.89,-12.34 -313.36,-5.41 -42.06,4.5 -17.22,82.84 -15.85,130.16 4.73,159.42 -0.22,320.21 -0.22,479.71 0,214.37 0,428.81 0,643.18l-769.68 574.59c-127.87,95.18 -253.61,196.23 -383.47,288.51 -33.3,23.78 -62.71,46.33 -96.32,71.79l-192.57 143.42c-23.7,18.13 -81.69,57.45 -95.49,78.18l1387.17 0c73.92,0 417.68,13.19 454.87,-7.54l65.46 -46.56c25.84,-17.3 43.52,-31.48 69.05,-48.55l754.35 -528.02c24.62,-16.69 43.06,-31.1 68.89,-48.55l138.24 -97.08c230.45,-155.01 451.06,-322.51 681.89,-477.2l203.85 -143.35c184.95,-124.44 361.97,-257.8 547.08,-382.47l619.47 -433.23c32.62,-22.48 106.77,-85.81 140.37,-94.87l0 4406.2 685.09 0 0 -2679.85c40.01,0 62.41,-5.02 106.15,-5.41 26.9,-0.22 29.04,-3.81 50.22,-5.56 17.68,-1.45 37.57,0.38 55.56,-0.15 26.67,-0.76 25.37,-4.5 49.99,-5.79 17.83,-0.99 37.49,1.22 55.4,-0.31 93.66,-7.77 233.87,-8.84 319.38,-20.73l321.28 -18.67c142.96,-1.22 287.9,-18.06 429.42,-22.17 26.67,-0.76 25.45,-4.57 49.91,-5.87 88.4,-4.72 179.24,-0.61 269.69,-14.48 70.72,-10.82 142.13,-5.1 210.18,-12.88 18.29,-2.05 36.73,-0.07 55.17,-0.61 26.67,-0.76 25.38,-4.57 49.84,-5.86 17.98,-1 37.72,1.06 55.78,0.07 111.49,-6.02 266.34,-22.86 373.33,-22.48l696.37 -39.47c26.67,-0.69 25.37,-4.5 49.99,-5.8 18.06,-0.99 37.64,1 55.78,0 50.91,-2.74 112.18,-11.81 161.4,-11.35 84.75,0.76 268.71,-13.95 368.08,-22.18 88.47,-7.39 180.07,0.61 270.68,-13.64 54.26,-8.46 95.56,-60.43 136.41,-93.12l683.1 -560.57c132.22,-109.28 314.58,-250.03 437.12,-358.54 120.48,-106.77 252.85,-209.65 378.21,-310.77l870.8 -714.81c272.96,-217.18 538.85,-443.59 809.07,-664.28l252.55 -206.98c147.61,-116.44 289.27,-241.87 436.88,-358.62 168.95,-133.51 330.73,-274.19 498.16,-409.37 187.77,-151.43 371.04,-309.86 560.26,-459.45l313.74 -257.8c20.8,-18.82 39.78,-32.69 61.42,-50.6l126.27 -103.49c12.88,-10.21 19.74,-16 30.94,-24.92 13.03,-10.29 20.35,-19.43 33.46,-28.27 39.32,26.67 141.21,151.65 188.07,198.9l247.9 268.01c12.5,12.57 20.88,21.03 33.38,33.68 15.01,15.09 17.75,21.87 30.71,36.73 47.09,54.26 110.19,108.83 155.68,163.92 13.11,15.93 15.55,21.26 30.72,36.51l125.58 132.36c13.64,14.03 15.78,20.12 27.74,33.92l284.1 304.74c85.88,86.72 162.08,181.37 247.89,267.94 11.51,11.66 19.36,19.28 30.79,30.94 14.25,14.71 17.3,22.4 30.4,36.88 22.1,24.16 45.58,43.14 66.84,67.6 12.04,13.87 14.25,19.96 27.89,33.99 12.27,12.57 20.95,21.1 33.45,33.68l749.26 809.61c86.11,87.02 164.68,183.8 250.71,270.83 85.81,86.72 162.17,181.37 247.97,267.94l281.28 301.77c15.16,15.24 17.75,20.5 30.86,36.5l91.6 99.07c12.12,12.8 21.19,21.19 33.53,33.76l186.7 200.19c14.87,15.02 17.61,21.87 30.56,36.73l63.94 64.93c12.95,14.86 15.7,21.72 30.71,36.73l220.16 233.95c14.02,14.63 16.46,22.25 30.4,36.89 21.04,22.02 45.65,42.52 63.64,65.3 20.5,25.99 105.24,121.25 127.34,136.26z"/>
   <polygon class="fil1" points="20865.14,12396.4 20865.14,12402.04 20871.61,12397.39 "/>
   <line class="fil2" x1="20848.45" y1="12379.48" x2="20842.89" y2= "12373.84" />
   <line class="fil2" x1="20854.01" y1="12385.12" x2="20848.45" y2= "12379.48" />
   <line class="fil2" x1="20859.57" y1="12390.76" x2="20854.01" y2= "12385.12" />
   <line class="fil2" x1="20865.14" y1="12396.4" x2="20859.57" y2= "12390.76" />
   <path class="fil1" d="M281.34 11755.74c-853.96,-12743.09 14940.93,-14720.32 18620.51,-4769.33 -2895.73,-10608.64 -20198.12,-8494.4 -18620.51,4769.33z"/>
   <path class="fil0" d="M281.34 12109.25c-853.96,-12743.08 14940.93,-14720.31 18620.51,-4769.32 -2895.73,-10608.64 -20198.12,-8494.4 -18620.51,4769.32z"/>
   <path class="fil3" d="M16118.75 14718.99c0,45.19 -12.8,79.94 -38.4,104.93 -25.69,24.69 -62.11,37.12 -108.98,37.12 -47.55,0 -84.05,-11.51 -109.51,-34.3 -25.6,-23.01 -38.4,-57.15 -38.4,-102.49l0 -682.73c0,-44.65 13.1,-79.4 38.94,-104.4 25.91,-25 62.33,-37.57 108.97,-37.57 47.71,0 84.21,11.51 109.59,34.75 25.3,23.01 37.79,57.08 37.79,102.04l0 682.65zm178.78 -9.07c0,-37.8 13.26,-70.19 40.01,-97.31 26.75,-27.13 59.29,-40.77 97.24,-40.77 37.49,0 69.88,13.64 96.85,40.77 27.06,27.12 40.47,59.51 40.47,97.31 0,38.18 -13.41,70.95 -40.47,98.31 -26.97,27.35 -59.36,41.07 -96.85,41.07 -37.27,0 -69.43,-13.87 -96.63,-41.46 -27.21,-27.58 -40.62,-60.12 -40.62,-97.92zm1008.05 -224.12l-276.48 0 0 233.19c0,44.96 -12.72,79.94 -38.4,104.7 -25.76,24.92 -62.11,37.35 -108.9,37.35 -47.63,0 -84.21,-11.51 -109.58,-34.3 -25.46,-23.01 -38.34,-57.15 -38.34,-102.49l0 -682.73c0,-44.65 13.04,-79.4 38.87,-104.4 25.91,-25 62.33,-37.57 109.05,-37.57 47.63,0 84.28,11.51 109.51,34.75 25.22,23.01 37.79,57.08 37.79,102.04l0 194.09 276.48 0 0 -194.09c0,-44.05 12.72,-77.96 38.02,-101.43 25.15,-23.62 61.81,-35.36 109.36,-35.36 47.17,0 83.98,12.57 110.12,37.57 26.21,25 39.17,59.75 39.17,104.4l0 682.73c0,44.5 -12.88,78.34 -38.26,101.81 -25.45,23.24 -62.11,34.98 -109.74,34.98 -46.33,0 -82.6,-12.43 -109.05,-37.35 -26.44,-24.76 -39.62,-59.74 -39.62,-104.7l0 -233.19zm458.45 224.12c0,-37.8 13.34,-70.19 40.08,-97.31 26.68,-27.13 59.29,-40.77 97.17,-40.77 37.57,0 69.95,13.64 96.85,40.77 27.06,27.12 40.54,59.51 40.54,97.31 0,38.18 -13.48,70.95 -40.54,98.31 -26.9,27.35 -59.28,41.07 -96.85,41.07 -37.27,0 -69.43,-13.87 -96.63,-41.46 -27.13,-27.58 -40.62,-60.12 -40.62,-97.92zm613.76 -797.34l430.1 0c42.22,0 74.53,9.76 96.48,29.11 22.33,19.51 33.3,48.16 33.3,85.73 0,35.21 -10.82,62.11 -32.54,81.01 -21.87,18.9 -52.96,28.2 -93.43,28.2l-315.94 0 0 125.13 252.01 0c41.68,0 72.24,8.45 91.44,25.37 19.21,16.92 28.89,43.67 28.89,80.09 0,36.05 -9.68,63.41 -29.19,81.92 -19.43,18.45 -47.63,27.59 -84.97,27.59l-258.18 0 0 144.56 330.27 0c41.76,0 73.92,9.99 96.4,29.95 22.33,20.04 33.38,49.08 33.38,87.33 0,35.59 -10.75,62.95 -32.54,82.08 -21.57,19.12 -52.81,28.65 -93.28,28.65l-452.2 0c-66.3,0 -112.78,-12.8 -139.08,-38.18 -26.36,-25.45 -39.62,-70.41 -39.62,-134.88l0 -590.14c0,-64.77 13.26,-109.89 39.62,-135.34 26.3,-25.38 72.78,-38.18 139.08,-38.18z"/>
   <path class="fil4" d="M6469.69 20916.71c-35.21,0 -66.07,-13.42 -92.59,-40.24 -26.37,-26.82 -39.63,-59.13 -39.63,-96.93l0 -786.98c0,-37.8 13.26,-70.11 39.63,-96.93 26.52,-26.83 57.38,-40.24 92.59,-40.24l377.52 0c38.25,0 69.88,12.2 94.87,36.58 24.85,24.31 37.35,55.86 37.35,94.65 0,40.69 -12.2,72.47 -36.74,95.33 -24.46,22.86 -56.24,34.29 -95.48,34.29l-233.57 0 0 134.2 211.55 0c39.17,0 71.1,11.66 95.56,34.98 24.46,23.4 36.65,55.4 36.65,96.17 0,40.77 -12.04,72.78 -35.97,96.17 -24,23.32 -56.01,34.98 -96.24,34.98l-209.95 0 0 143.12 237.84 0c41.15,0 73.76,11.43 97.69,34.29 24.01,22.86 35.97,54.64 35.97,95.41 0,39.7 -12.12,71.55 -36.73,95.41 -24.46,23.85 -56.32,35.74 -95.41,35.74l-384.91 0zm1404.08 8.91c-42.21,0 -75.9,-12.65 -101.35,-37.95 -25.61,-25.37 -38.18,-59.89 -38.18,-103.64l0 -794.44c0,-44.73 11.2,-79.79 33.68,-105.09 22.56,-25.37 54.87,-38.02 97.09,-38.02 30.25,0 55.78,5.94 76.28,17.91 20.65,11.88 42.14,32.76 64.62,62.56l406.94 479.94 3.05 0 0 -418.82c0,-43.75 12.88,-78.27 38.79,-103.57 25.91,-25.37 59.51,-38.02 100.74,-38.02 42.07,0 75.67,12.65 100.59,38.02 24.92,25.3 37.42,59.82 37.42,103.57l0 794.52c0,44.65 -12.19,79.71 -36.65,105.08 -24.62,25.3 -56.85,37.95 -97.09,37.95 -30.33,0 -56.24,-6.93 -77.81,-20.8 -21.49,-13.95 -46.02,-38.33 -73.38,-73.08l-393.68 -463.56 -2.97 0 0 415.85c0,43.75 -12.73,78.27 -38.26,103.64 -25.45,25.3 -58.68,37.95 -99.83,37.95zm1744.8 -8.91c-35.28,0 -66.14,-13.42 -92.51,-40.24 -26.52,-26.82 -39.7,-59.13 -39.7,-96.93l0 -786.98c0,-37.8 13.18,-70.11 39.7,-96.93 26.37,-26.83 57.23,-40.24 92.51,-40.24l377.53 0c38.25,0 69.73,12.2 94.72,36.58 24.92,24.31 37.49,55.86 37.49,94.65 0,40.69 -12.27,72.47 -36.73,95.33 -24.46,22.86 -56.24,34.29 -95.48,34.29l-233.57 0 0 134.2 211.54 0c39.17,0 70.95,11.66 95.41,34.98 24.54,23.4 36.81,55.4 36.81,96.17 0,40.77 -11.96,72.78 -35.97,96.17 -24,23.32 -56.16,34.98 -96.25,34.98l-210.1 0 0 143.12 237.92 0c41.23,0 73.84,11.43 97.85,34.29 23.93,22.86 35.97,54.64 35.97,95.41 0,39.7 -12.35,71.55 -36.74,95.41 -24.53,23.85 -56.31,35.74 -95.48,35.74l-384.92 0zm1403.94 8.91c-42.07,0 -75.9,-12.65 -101.35,-37.95 -25.38,-25.37 -38.18,-59.89 -38.18,-103.64l0 -791.47c0,-37.8 13.26,-70.11 39.7,-96.93 26.44,-26.83 57.38,-40.24 92.51,-40.24l307.04 0c106.76,0 193.25,31.09 259.32,93.2 66.07,62.11 99.15,145.33 99.15,249.65 0,63.63 -16.69,121.7 -49.84,174.44 -33.46,52.65 -83.83,90.38 -151.35,113.24l-8.91 2.97 165.97 183.35c39.33,43.74 58.83,83.98 58.83,120.79 0,34.75 -12.95,65.53 -38.86,92.36 -26.06,26.82 -62.49,40.23 -109.51,40.23 -50.9,0 -97.47,-28.8 -139.61,-86.41l-243.85 -333.94 -2.82 0 0 278.76c0,43.75 -12.88,78.27 -38.26,103.64 -25.45,25.3 -58.83,37.95 -99.98,37.95zm138.24 -624.5l152.64 0c26.52,0 48.01,-8.99 64.62,-26.83 16.76,-17.9 25.07,-41.3 25.07,-70.1 0,-27.82 -9.07,-49.39 -27.13,-64.86 -18.21,-15.39 -39.02,-23.09 -62.56,-23.09l-152.64 0 0 184.88zm1803.4 643.94c-88.02,0 -167.65,-15.7 -238.68,-46.95 -71.02,-31.32 -128.02,-73.31 -171.08,-125.96 -43.21,-52.66 -75.97,-111.11 -98.46,-175.2 -22.55,-64.09 -33.75,-130.92 -33.75,-200.42 0,-166.97 50.37,-303.6 151.26,-409.91 100.82,-106.38 228.32,-159.5 381.95,-159.5 132.29,0 237.99,27.28 317.39,81.92 67.52,44.73 101.43,101.89 101.43,171.46 0,33.76 -11.05,61.35 -33.15,82.69 -22.1,21.41 -51.59,32.08 -88.85,32.08 -26.45,0 -59.22,-12.42 -98.39,-37.27 -2.13,-0.99 -10.89,-6.7 -26.51,-17.14 -15.7,-10.44 -29.12,-18.9 -40.39,-25.3 -11.28,-6.48 -28.2,-12.73 -50.6,-18.67 -22.56,-5.95 -46.03,-8.92 -70.65,-8.92 -69.42,0 -127.79,27.82 -174.81,83.45 -47.02,55.63 -70.49,127.18 -70.49,214.67 0,87.41 21.56,158.96 64.62,214.59 43.21,55.71 100.9,83.52 173.44,83.52 49.92,0 93.43,-13.41 130.7,-40.23 37.18,-26.9 59.28,-61.65 66.14,-104.4l-124.9 0c-42.14,0 -74.98,-11.43 -98.46,-34.3 -23.54,-22.78 -35.2,-54.64 -35.2,-95.33 0,-41.76 11.66,-74.3 35.2,-97.7 23.48,-23.31 55.79,-34.97 96.94,-34.97l280.59 0c89.23,0 133.81,56.16 133.81,168.41 0,140.14 -46.71,258.34 -139.6,354.74 -93.05,96.4 -206.22,144.64 -339.5,144.64zm1614.26 -19.44c-42.22,0 -75.98,-12.65 -101.43,-37.95 -25.53,-25.37 -38.18,-59.89 -38.18,-103.64l0 -363.65 -179.23 -217.64c-50.98,-68.59 -84.74,-117.05 -101.36,-145.33 -16.69,-28.34 -24.99,-56.39 -24.99,-84.2 0,-35.82 13.49,-65.85 40.31,-90.23 27.05,-24.31 61.5,-36.5 103.56,-36.5 22.64,0 44.36,6.47 65.46,19.35 21.11,12.96 36.43,25.38 46.26,37.27 9.83,11.96 22.02,27.81 36.73,47.7l152.87 210.18 149.82 -208.65c22.48,-31.86 43.82,-55.94 63.78,-72.32 20.2,-16.39 35.67,-26.07 46.41,-29.04 10.67,-3.05 24.01,-4.49 39.63,-4.49 41.08,0 75.44,12.19 102.8,36.5 27.36,24.38 41.08,54.41 41.08,90.23 0,25.83 -7.78,52.35 -23.47,79.71 -15.7,27.36 -47.02,73.31 -94.04,137.85l-188 229.61 0 363.65c0,43.75 -12.96,78.27 -38.94,103.64 -25.99,25.3 -58.91,37.95 -99.07,37.95z"/>
   <path class="fil3" d="M1862.61 19045.25l0 -272.51 117.43 0c74.45,0 122.08,-10.36 143.11,-30.48 20.88,-20.12 31.48,-69.65 31.48,-149.67l0 -1172.65c0,-81.08 -10.6,-131.15 -31.48,-150.73 -21.03,-19.59 -68.66,-29.42 -143.11,-29.42l-117.43 0 0 -272.51 1133.48 0 0 272.51 -117.36 0c-75.29,0 -124.06,10.36 -145.55,30.94 -21.42,20.65 -31.93,70.26 -31.93,149.21l0 1172.65c0,78.95 10.51,128.56 31.93,149.14 21.49,20.65 70.26,31.01 145.55,31.01l117.36 0 0 272.51 -1133.48 0zm1846.84 27.36l-231.82 0 0 -817.08 257.12 0c23.24,166.74 89.16,299.42 196.99,399.02 108.29,99.6 240.88,149.13 398.25,149.13 108.29,0 193.18,-22.18 254.75,-66.53 61.58,-44.42 92.14,-105.31 92.14,-181.75 0,-120.25 -114.54,-209.03 -343.92,-266.79 -37.26,-8.77 -65.84,-16.01 -85.5,-21.19 -199.74,-51.06 -338.2,-93.43 -415.4,-126.96 -76.89,-33.07 -140.29,-71.25 -190.28,-114.61 -64.47,-54.71 -113.17,-119.72 -146.09,-195.09 -32.84,-75.36 -49.61,-159.49 -49.61,-250.86 0,-209.49 68.2,-372.65 204.61,-488.25 136.41,-116.14 329.29,-173.9 577.72,-173.9 124.06,0 233.72,14.4 329.13,42.82 95.41,28.89 177.94,72.25 248.05,130.54l57.23 -146.01 237.61 0 0 759.24 -262.84 0c-16.76,-153.33 -75.44,-274.11 -176.03,-361.29 -100.75,-87.26 -231.36,-131.15 -391.62,-131.15 -95.87,0 -171.85,21.72 -227.63,65.08 -55.78,43.36 -83.9,102.19 -83.9,175.96 0,105.85 126.43,187.39 378.82,245.15 95.86,22.25 171.61,40.85 228,56.32 219.4,58.29 380.65,141.89 482.23,250.79 102.12,108.97 153.1,250.87 153.1,426.37 0,206.44 -71.56,370.59 -214.59,492.9 -142.66,121.85 -336.3,182.74 -580.54,182.74 -117.43,0 -231.36,-17.07 -342.01,-50.6 -111.26,-33.53 -203.24,-78.95 -276.7,-135.27l-77.27 151.27zm2582.3 -1064.82c0,282.87 36.27,489.85 109.28,619.4 72.47,130.08 187.92,195.08 346.73,195.08 157.44,0 272.36,-65 344.91,-195.08 72.93,-129.55 109.28,-336.53 109.28,-619.4 0,-282.8 -36.35,-489.77 -109.28,-619.32 -72.55,-130.09 -187.47,-195.16 -344.91,-195.16 -158.81,0 -274.26,65.07 -346.73,195.16 -73.01,129.55 -109.28,336.52 -109.28,619.32zm-623.97 0c0,-342.7 95.86,-612.16 287.14,-808.24 191.73,-196.15 455.63,-294.23 792,-294.23 334.32,0 597.07,97.55 788.81,293.17 191.35,195.62 287.14,465.54 287.14,809.3 0,342.77 -95.34,611.63 -286.61,806.71 -190.82,195.16 -454.11,292.71 -789.34,292.71 -336.37,0 -600.27,-97.55 -792,-293.17 -191.28,-195.62 -287.14,-464.54 -287.14,-806.25zm3514.44 1037.46l0 -272.51 105.93 0c74.37,0 122.16,-10.36 143.04,-30.48 21.1,-20.12 31.47,-69.65 31.47,-149.14l0 -1173.18c0,-81.08 -10.37,-131.15 -31.47,-150.73 -20.88,-19.59 -68.67,-29.42 -143.04,-29.42l-105.93 0 0 -272.51 1050.42 0 0 272.51 -54.41 0c-76.36,0 -124.9,10.36 -146.01,30.94 -20.88,20.65 -31.4,70.26 -31.4,149.21l0 405.19 621.08 0 0 -405.19c0,-78.95 -10.52,-128.56 -32.09,-149.21 -21.41,-20.58 -70.03,-30.94 -145.4,-30.94l-54.48 0 0 -272.51 1050.57 0 0 272.51 -106.01 0c-75.36,0 -123.98,10.36 -145.55,30.94 -21.34,20.65 -31.85,70.26 -31.85,149.21l0 1173.18c0,78.42 10.51,128.03 31.85,148.61 21.57,20.65 70.19,31.01 145.55,31.01l106.01 0 0 272.51 -1050.57 0 0 -272.51 54.48 0c75.37,0 123.99,-10.36 145.4,-31.01 21.57,-20.58 32.09,-70.19 32.09,-148.61l0 -486.19 -621.08 0 0 486.19c0,78.42 10.52,128.03 31.4,148.61 21.11,20.65 69.65,31.01 146.01,31.01l54.41 0 0 272.51 -1050.42 0zm3332.55 -1037.46c0,282.87 36.35,489.85 109.27,619.4 72.63,130.08 188,195.08 346.89,195.08 157.29,0 272.36,-65 344.83,-195.08 72.93,-129.55 109.2,-336.53 109.2,-619.4 0,-282.8 -36.27,-489.77 -109.2,-619.32 -72.47,-130.09 -187.54,-195.16 -344.83,-195.16 -158.89,0 -274.26,65.07 -346.89,195.16 -72.92,129.55 -109.27,336.52 -109.27,619.32zm-623.9 0c0,-342.7 95.87,-612.16 287.14,-808.24 191.74,-196.15 455.71,-294.23 792.01,-294.23 334.23,0 597.07,97.55 788.8,293.17 191.43,195.62 287.14,465.54 287.14,809.3 0,342.77 -95.25,611.63 -286.53,806.71 -190.82,195.16 -454.18,292.71 -789.41,292.71 -336.3,0 -600.27,-97.55 -792.01,-293.17 -191.27,-195.62 -287.14,-464.54 -287.14,-806.25zm3194.46 584.8c0,78.95 10.44,128.56 31.47,149.14 20.88,20.65 69.58,31.01 145.94,31.01l54.25 0 0 272.51 -821.41 0 0 -272.51 94.03 0c76.89,0 125.44,-10.36 146.55,-31.01 20.88,-20.58 31.39,-70.19 31.39,-149.14l0 -1172.65c0,-78.95 -10.51,-128.56 -31.39,-149.21 -21.11,-20.58 -69.66,-30.94 -146.55,-30.94l-94.03 0 0 -272.51 1007.51 0 334.46 1279.49 352 -1279.49 999.28 0 0 272.51 -97.69 0c-75.45,0 -123.53,10.36 -145.1,30.94 -21.41,20.65 -31.93,70.26 -31.93,149.21l0 1172.65c0,78.95 10.52,128.56 31.93,149.14 21.57,20.65 69.65,31.01 145.1,31.01l97.69 0 0 272.51 -1007.44 0 0 -272.51 57.23 0c74.46,0 122.16,-10.36 143.19,-30.48 20.96,-20.12 31.4,-69.65 31.4,-149.67l0 -1297.02 -477.88 1749.68 -385.91 0 -464.09 -1752.8 0 1300.14zm2513.56 452.66l0 -272.51 105.85 0c74.46,0 122.24,-10.36 143.12,-30.48 21.11,-20.12 31.55,-69.65 31.55,-149.67l0 -1172.65c0,-81.08 -10.44,-131.15 -31.55,-150.73 -20.88,-19.59 -68.66,-29.42 -143.12,-29.42l-105.85 0 0 -272.51 1897.52 0 0 792.77 -251.78 0c-15.85,-120.79 -34.45,-212.62 -55.79,-274.57 -21.49,-61.96 -49.61,-110.42 -85.5,-146.09 -35.2,-36.12 -80.55,-61.95 -136.94,-76.89 -55.71,-14.94 -155.38,-22.71 -300.02,-22.71l-248.89 0 0 591.51 47.63 0c106.38,0 177.41,-21.72 213.22,-65.01 35.82,-43.36 53.96,-131.14 53.96,-263.29l240.43 0 0 947.7 -240.43 -1.6c-2.82,-143.5 -20.43,-237.38 -52.97,-280.29 -32.84,-43.28 -104.09,-65 -214.21,-65l-47.63 0 0 668.93 257.58 0c210.32,0 352.52,-39.24 426.37,-117.66 74.07,-78.49 121.7,-234.33 143.19,-466.61l251.78 0 0 856.78 -1897.52 0z"/>
  </g>
 </g>
</svg>
